<svg width="1400" height="600" viewBox="0 0 1400 600" xmlns="http://www.w3.org/2000/svg" xmlns:xlink="http://www.w3.org/1999/xlink"><title>Junet logo</title><desc>Created using Figma</desc><clipPath id="a" clip-rule="evenodd"><path d="M0 0h1400v600H0V0z" fill="#FFF"/></clipPath><g clip-path="url(#a)"><path d="M0 0h1400v600H0V0z" fill="#FFF"/><use xlink:href="#b" transform="translate(329 348)" fill="#ADADAD"/><use xlink:href="#c" transform="translate(163 348)" fill="#ADADAD"/><use xlink:href="#d" transform="translate(80 204)" fill="#ADADAD"/><use xlink:href="#e" transform="translate(412 204)" fill="#ADADAD"/><use xlink:href="#b" transform="translate(329 60)" fill="#ADADAD"/><use xlink:href="#c" transform="translate(163 60)" fill="#ADADAD"/><g transform="translate(281.138 168)"><use xlink:href="#f" fill="#63AC56"/><use xlink:href="#g" fill="#318921"/></g><g transform="translate(198.138 300)"><use xlink:href="#f" fill="#D5615A"/><use xlink:href="#g" fill="#C03931"/></g><g transform="translate(364.138 300)"><use xlink:href="#f" fill="#A978C1"/><use xlink:href="#g" fill="#854E9F"/></g><use xlink:href="#h" transform="translate(665 145)"/></g><defs><path id="b" d="M0 144h-6v3.46l3 1.73 3-5.2zm0-96l-3-5.2-3 1.74V48h6zM83 0l3-5.2-3-1.73-3 1.74L83 0zm83 48h6v-3.46l-3-1.73-3 5.2zm0 96l3 5.2 3-1.74V144h-6zm-83 48l-3 5.2 3 1.73 3-1.74-3-5.2zM6 144V48H-6v96H6zM3 53.2l83-48-6-10.4-83 48 6 10.4zm77-48l83 48 6-10.4-83-48-6 10.4zM160 48v96h12V48h-12zm3 90.8l-83 48 6 10.4 83-48-6-10.4zm-77 48l-83-48-6 10.4 83 48 6-10.4z"/><path id="c" d="M0 144h-6v3.46l3 1.73 3-5.2zm0-96l-3-5.2-3 1.74V48h6zM83 0l3-5.2-3-1.73-3 1.74L83 0zm83 48h6v-3.46l-3-1.73-3 5.2zm0 96l3 5.2 3-1.74V144h-6zm-83 48l-3 5.2 3 1.73 3-1.74-3-5.2zM6 144V48H-6v96H6zM3 53.2l83-48-6-10.4-83 48 6 10.4zm77-48l83 48 6-10.4-83-48-6 10.4zM160 48v96h12V48h-12zm3 90.8l-83 48 6 10.4 83-48-6-10.4zm-77 48l-83-48-6 10.4 83 48 6-10.4z"/><path id="d" d="M0 144h-6v3.46l3 1.73 3-5.2zm0-96l-3-5.2-3 1.74V48h6zM83 0l3-5.2-3-1.73-3 1.74L83 0zm83 48h6v-3.46l-3-1.73-3 5.2zm0 96l3 5.2 3-1.74V144h-6zm-83 48l-3 5.2 3 1.73 3-1.74-3-5.2zM6 144V48H-6v96H6zM3 53.2l83-48-6-10.4-83 48 6 10.4zm77-48l83 48 6-10.4-83-48-6 10.4zM160 48v96h12V48h-12zm3 90.8l-83 48 6 10.4 83-48-6-10.4zm-77 48l-83-48-6 10.4 83 48 6-10.4z"/><path id="e" d="M0 144h-6v3.46l3 1.73 3-5.2zm0-96l-3-5.2-3 1.74V48h6zM83 0l3-5.2-3-1.73-3 1.74L83 0zm83 48h6v-3.46l-3-1.73-3 5.2zm0 96l3 5.2 3-1.74V144h-6zm-83 48l-3 5.2 3 1.73 3-1.74-3-5.2zM6 144V48H-6v96H6zM3 53.2l83-48-6-10.4-83 48 6 10.4zm77-48l83 48 6-10.4-83-48-6 10.4zM160 48v96h12V48h-12zm3 90.8l-83 48 6 10.4 83-48-6-10.4zm-77 48l-83-48-6 10.4 83 48 6-10.4z"/><path id="f" d="M48 96c26.5 0 48-21.5 48-48S74.5 0 48 0 0 21.5 0 48s21.5 48 48 48z"/><path id="g" d="M90 48c0 23.2-18.8 42-42 42v12c29.82 0 54-24.18 54-54H90zM48 90C24.8 90 6 71.2 6 48H-6c0 29.82 24.18 54 54 54V90zM6 48C6 24.8 24.8 6 48 6V-6C18.18-6-6 18.18-6 48H6zM48 6c23.2 0 42 18.8 42 42h12c0-29.82-24.18-54-54-54V6z"/><path id="h" d="M11.04 188.64c7.2 22.8 29.04 39.36 54.24 39.36 31.44 0 56.88-25.2 56.88-56.88V65.76c0-3.12-2.64-5.76-5.76-5.76-3.12 0-5.76 2.64-5.76 5.76v105.36c0 24.96-20.4 45.12-45.36 45.12-20.16.24-37.2-12.96-43.2-31.44-.72-2.88-4.08-4.56-7.2-3.6-3.12.96-4.8 4.32-3.84 7.44zM162.42 180c0 26.4 21.12 48 47.52 48 26.88 0 48.24-21.6 48.24-48v-64.08c0-3.36-2.64-5.76-6-5.76-2.88 0-5.76 2.4-5.76 5.76V180c0 20.16-16.32 36.24-36.48 36.48-19.92-.24-36-16.32-36-36.48v-64.08c0-3.36-2.64-5.76-5.76-5.76-3.12 0-5.76 2.4-5.76 5.76V180zm227.73 42.24c0 3.36 2.64 5.76 5.76 5.76 3.16 0 5.8-2.4 5.8-5.76V158.4c0-26.16-21.36-47.76-47.76-47.76-14.63 0-27.83 6.72-36.47 17.04V116.4c0-3.12-2.4-5.76-5.52-5.76-3.35 0-5.75 2.64-5.75 5.76v107.28s.23.24.23.48 0 .48.23.72c.72 1.44 2.16 2.64 3.84 3.12h1.43c1.7 0 3.37-.72 4.33-2.16.72-.72.96-1.68 1.2-2.64v-64.8c.48-19.92 16.56-36.24 36.48-36.24 20.17 0 36.25 16.32 36.25 36.24v63.84zm111.9 5.76c19.93 0 37.45-10.56 47.53-26.64 1.68-2.88.72-6.24-1.92-8.16-2.4-1.44-6-.96-7.68 1.92-7.92 13.2-22.32 21.36-37.92 21.36-24.24 0-44.4-19.44-45.6-45.12h96.48c3.12 0 5.76-2.16 5.76-5.28v-.96c-2.4-30.72-26.4-54.72-56.64-54.72-31.68 0-57.12 26.4-57.12 59.04 0 32.16 25.44 58.56 57.12 58.56zm0-106.08c21.6 0 40.33 16.08 44.17 38.16h-89.04c4.32-22.32 22.8-38.16 44.88-38.16zm123.2-11.52h-15.1V66.72c0-2.88-3.13-5.76-6.25-5.76-2.88 0-5.76 2.88-5.76 5.76v43.68H583.5c-5.76 0-5.76 2.88-5.76 5.76s0 5.76 5.76 5.76h14.64v85.68c0 11.76 8.88 20.4 20.64 20.4 2.88 0 6-2.88 6-5.76s-3.12-6-6-6-8.64-2.88-8.64-8.64v-85.68h15.12c2.88 0 5.76-2.88 5.76-5.76s-2.88-5.76-5.76-5.76z"/></defs></svg>